{"title":"Delhi Safari 2012 SCamRip Mpg (ICTV) - Hindi","uid":7742358,"size":580106240,"categoryP":"video","categoryS":"movies","magnet":"?xt=urn:btih:6ec4726b6473265ded657832d7c9336cd6f4f9e8&amp;dn=Delhi+Safari+2012+SCamRip+Mpg+%28ICTV%29+-+Hindi&amp;tr=udp%3A%2F%2Ftracker.openbittorrent.com%3A80&amp;tr=udp%3A%2F%2Fopen.demonii.com%3A1337&amp;tr=udp%3A%2F%2Ftracker.coppersurfer.tk%3A6969&amp;tr=udp%3A%2F%2Fexodus.desync.com%3A6969","seeders":0,"leechers":1,"uploader":"SJonam","files":1,"time":1350661126,"description":" &lt;a href=&quot;http://desibbrg.org/images/66952052392581364616.gif&quot; rel=&quot;nofollow&quot; target=&quot;_NEW&quot;&gt;http://desibbrg.org/images/66952052392581364616.gif&lt;/a&gt;\n &lt;a href=&quot;\nhttp://desibbrg.org/images/46168484439762130084.png&quot; rel=&quot;nofollow&quot; target=&quot;_NEW&quot;&gt;\nhttp://desibbrg.org/images/46168484439762130084.png&lt;/a&gt;\n &lt;a href=&quot;\nhttp://desibbrg.org/images/50076242492317528599.png&quot; rel=&quot;nofollow&quot; target=&quot;_NEW&quot;&gt;\nhttp://desibbrg.org/images/50076242492317528599.png&lt;/a&gt;\n\nMedia Info - \nGeneral\nComplete name                    : /Delhi Safari (2012) S Cam Rip- Mpg - Team Ictv Exclusive.MPG\nFormat                           : MPEG-PS\nFile size                        : 553 MiB\nDuration                         : 1h 23mn\nOverall bit rate                 : 925 Kbps\n\nVideo\nID                               : 224 (0xE0)\nFormat                           : MPEG Video\nFormat version                   : Version 2\nFormat profile                   : Main@Main\nFormat settings, BVOP            : Yes\nFormat settings, Matrix          : Default\nFormat settings, GOP             : M=3, N=12\nDuration                         : 1h 23mn\nBit rate mode                    : Variable\nBit rate                         : 800 Kbps\nWidth                            : 352 pixels\nHeight                           : 288 pixels\nDisplay aspect ratio             : 4:3\nFrame rate                       : 25.000 fps\nStandard                         : PAL\nColor space                      : YUV\nChroma subsampling               : 4:2:0\nBit depth                        : 8 bits\nScan type                        : Progressive\nCompression mode                 : Lossy\nBits/(Pixel*Frame)               : 0.316\nStream size                      : 466 MiB (84%)\n\nAudio\nID                               : 192 (0xC0)\nFormat                           : MPEG Audio\nFormat version                   : Version 1\nFormat profile                   : Layer 2\nDuration                         : 1h 23mn\nBit rate mode                    : Constant\nBit rate                         : 128 Kbps\nChannel(s)                       : 2 channels\nSampling rate                    : 44.1 KHz\nCompression mode                 : Lossy\nStream size                      : 76.6 MiB (14%)\n\nRipper : Master Mind\n\nSeeding 24x7... Extreme Seeding...\n\n\nEnjoy!\n","torrent":{"xt":"urn:btih:6ec4726b6473265ded657832d7c9336cd6f4f9e8","amp;dn":"Delhi+Safari+2012+SCamRip+Mpg+%28ICTV%29+-+Hindi","amp;tr":["udp%3A%2F%2Ftracker.openbittorrent.com%3A80","udp%3A%2F%2Fopen.demonii.com%3A1337","udp%3A%2F%2Ftracker.coppersurfer.tk%3A6969","udp%3A%2F%2Fexodus.desync.com%3A6969"],"infoHash":"6ec4726b6473265ded657832d7c9336cd6f4f9e8","infoHashBuffer":{"type":"Buffer","data":[110,196,114,107,100,115,38,93,237,101,120,50,215,201,51,108,214,244,249,232]},"announce":[],"urlList":[]}}